<?xml version="1.0" encoding="UTF-8" standalone="no"?>
<!DOCTYPE svg PUBLIC "-//W3C//DTD SVG 1.1//EN"
 "http://www.w3.org/Graphics/SVG/1.1/DTD/svg11.dtd">
<!-- Generated by graphviz version 2.40.1 (20161225.0304)
 -->
<!-- Title: dependency&#45;cruiser output Pages: 1 -->
<svg width="490pt" height="452pt"
 viewBox="0.00 0.00 489.50 452.00" xmlns="http://www.w3.org/2000/svg" xmlns:xlink="http://www.w3.org/1999/xlink">
<g id="graph0" class="graph" transform="scale(1 1) rotate(0) translate(4 448)">
<title>dependency&#45;cruiser output</title>
<polygon fill="#ffffff" stroke="transparent" points="-4,4 -4,-448 485.5,-448 485.5,4 -4,4"/>
<g id="clust1" class="cluster">
<title>cluster_src</title>
<path fill="#ffffff" stroke="#000000" stroke-width="2" d="M20,-8C20,-8 461.5,-8 461.5,-8 467.5,-8 473.5,-14 473.5,-20 473.5,-20 473.5,-424 473.5,-424 473.5,-430 467.5,-436 461.5,-436 461.5,-436 20,-436 20,-436 14,-436 8,-430 8,-424 8,-424 8,-20 8,-20 8,-14 14,-8 20,-8"/>
<text text-anchor="middle" x="240.75" y="-424.8" font-family="Helvetica,sans-Serif" font-weight="bold" font-size="9.00" fill="#000000">src</text>
</g>
<g id="clust2" class="cluster">
<title>cluster_src/data</title>
<path fill="#ffffff" stroke="#000000" stroke-width="2" d="M214.5,-16C214.5,-16 273.5,-16 273.5,-16 279.5,-16 285.5,-22 285.5,-28 285.5,-28 285.5,-56 285.5,-56 285.5,-62 279.5,-68 273.5,-68 273.5,-68 214.5,-68 214.5,-68 208.5,-68 202.5,-62 202.5,-56 202.5,-56 202.5,-28 202.5,-28 202.5,-22 208.5,-16 214.5,-16"/>
<text text-anchor="middle" x="244" y="-56.8" font-family="Helvetica,sans-Serif" font-weight="bold" font-size="9.00" fill="#000000">data</text>
</g>
<g id="clust3" class="cluster">
<title>cluster_src/scenes</title>
<path fill="#ffffff" stroke="#000000" stroke-width="2" d="M118,-76C118,-76 453.5,-76 453.5,-76 459.5,-76 465.5,-82 465.5,-88 465.5,-88 465.5,-278 465.5,-278 465.5,-284 459.5,-290 453.5,-290 453.5,-290 118,-290 118,-290 112,-290 106,-284 106,-278 106,-278 106,-88 106,-88 106,-82 112,-76 118,-76"/>
<text text-anchor="middle" x="285.75" y="-278.8" font-family="Helvetica,sans-Serif" font-weight="bold" font-size="9.00" fill="#000000">scenes</text>
</g>
<g id="clust4" class="cluster">
<title>cluster_src/scenes/play</title>
<path fill="#ffffff" stroke="#000000" stroke-width="2" d="M213,-84C213,-84 445.5,-84 445.5,-84 451.5,-84 457.5,-90 457.5,-96 457.5,-96 457.5,-252 457.5,-252 457.5,-258 451.5,-264 445.5,-264 445.5,-264 213,-264 213,-264 207,-264 201,-258 201,-252 201,-252 201,-96 201,-96 201,-90 207,-84 213,-84"/>
<text text-anchor="middle" x="329.25" y="-252.8" font-family="Helvetica,sans-Serif" font-weight="bold" font-size="9.00" fill="#000000">play</text>
</g>
<g id="clust5" class="cluster">
<title>cluster_src/scenes/play/maps</title>
<path fill="#ffffff" stroke="#000000" stroke-width="2" d="M221,-118C221,-118 437.5,-118 437.5,-118 443.5,-118 449.5,-124 449.5,-130 449.5,-130 449.5,-226 449.5,-226 449.5,-232 443.5,-238 437.5,-238 437.5,-238 221,-238 221,-238 215,-238 209,-232 209,-226 209,-226 209,-130 209,-130 209,-124 215,-118 221,-118"/>
<text text-anchor="middle" x="329.25" y="-226.8" font-family="Helvetica,sans-Serif" font-weight="bold" font-size="9.00" fill="#000000">maps</text>
</g>
<g id="clust6" class="cluster">
<title>cluster_src/scenes/play/maps/worlds</title>
<path fill="#ffffff" stroke="#000000" stroke-width="2" d="M305.5,-126C305.5,-126 429.5,-126 429.5,-126 435.5,-126 441.5,-132 441.5,-138 441.5,-138 441.5,-200 441.5,-200 441.5,-206 435.5,-212 429.5,-212 429.5,-212 305.5,-212 305.5,-212 299.5,-212 293.5,-206 293.5,-200 293.5,-200 293.5,-138 293.5,-138 293.5,-132 299.5,-126 305.5,-126"/>
<text text-anchor="middle" x="367.5" y="-200.8" font-family="Helvetica,sans-Serif" font-weight="bold" font-size="9.00" fill="#000000">worlds</text>
</g>
<g id="clust7" class="cluster">
<title>cluster_src/scenes/play/maps/worlds/world0</title>
<path fill="#ffffff" stroke="#000000" stroke-width="2" d="M375.5,-134C375.5,-134 421.5,-134 421.5,-134 427.5,-134 433.5,-140 433.5,-146 433.5,-146 433.5,-174 433.5,-174 433.5,-180 427.5,-186 421.5,-186 421.5,-186 375.5,-186 375.5,-186 369.5,-186 363.5,-180 363.5,-174 363.5,-174 363.5,-146 363.5,-146 363.5,-140 369.5,-134 375.5,-134"/>
<text text-anchor="middle" x="398.5" y="-174.8" font-family="Helvetica,sans-Serif" font-weight="bold" font-size="9.00" fill="#000000">world0</text>
</g>
<g id="clust8" class="cluster">
<title>cluster_src/utils</title>
<path fill="#ffffff" stroke="#000000" stroke-width="2" d="M101,-298C101,-298 181,-298 181,-298 187,-298 193,-304 193,-310 193,-310 193,-398 193,-398 193,-404 187,-410 181,-410 181,-410 101,-410 101,-410 95,-410 89,-404 89,-398 89,-398 89,-310 89,-310 89,-304 95,-298 101,-298"/>
<text text-anchor="middle" x="141" y="-398.8" font-family="Helvetica,sans-Serif" font-weight="bold" font-size="9.00" fill="#000000">utils</text>
</g>
<!-- src/data/keyConfig.ts -->
<g id="node1" class="node">
<title>src/data/keyConfig.ts</title>
<g id="a_node1"><a xlink:href="src/data/keyConfig.ts" xlink:title="keyConfig.ts">
<path fill="#ddfeff" stroke="#000000" d="M271.5,-42C271.5,-42 216.5,-42 216.5,-42 213.5,-42 210.5,-39 210.5,-36 210.5,-36 210.5,-30 210.5,-30 210.5,-27 213.5,-24 216.5,-24 216.5,-24 271.5,-24 271.5,-24 274.5,-24 277.5,-27 277.5,-30 277.5,-30 277.5,-36 277.5,-36 277.5,-39 274.5,-42 271.5,-42"/>
<text text-anchor="start" x="218.5" y="-30.8" font-family="Helvetica,sans-Serif" font-size="9.00" fill="#000000">keyConfig.ts</text>
</a>
</g>
</g>
<!-- src/global.d.ts -->
<g id="node2" class="node">
<title>src/global.d.ts</title>
<g id="a_node2"><a xlink:href="src/global.d.ts" xlink:title="global.d.ts">
<path fill="#ccffcc" stroke="#000000" d="M72,-286C72,-286 25,-286 25,-286 22,-286 19,-283 19,-280 19,-280 19,-274 19,-274 19,-271 22,-268 25,-268 25,-268 72,-268 72,-268 75,-268 78,-271 78,-274 78,-274 78,-280 78,-280 78,-283 75,-286 72,-286"/>
<text text-anchor="start" x="27" y="-274.8" font-family="Helvetica,sans-Serif" font-size="9.00" fill="#000000">global.d.ts</text>
</a>
</g>
</g>
<!-- src/main.ts -->
<g id="node3" class="node">
<title>src/main.ts</title>
<g id="a_node3"><a xlink:href="src/main.ts" xlink:title="main.ts">
<path fill="#ddfeff" stroke="#000000" d="M69.5,-132C69.5,-132 27.5,-132 27.5,-132 24.5,-132 21.5,-129 21.5,-126 21.5,-126 21.5,-120 21.5,-120 21.5,-117 24.5,-114 27.5,-114 27.5,-114 69.5,-114 69.5,-114 72.5,-114 75.5,-117 75.5,-120 75.5,-120 75.5,-126 75.5,-126 75.5,-129 72.5,-132 69.5,-132"/>
<text text-anchor="start" x="33.5" y="-120.8" font-family="Helvetica,sans-Serif" font-size="9.00" fill="#000000">main.ts</text>
</a>
</g>
</g>
<!-- src/main.ts&#45;&gt;src/data/keyConfig.ts -->
<g id="edge1" class="edge">
<title>src/main.ts&#45;&gt;src/data/keyConfig.ts</title>
<path fill="none" stroke="#000000" stroke-width="2" stroke-opacity="0.200000" d="M53.4992,-113.7385C60.1106,-102.3886 72.8369,-83.3891 89,-73 124.1038,-50.4366 171.3526,-40.5807 204.4226,-36.2879"/>
<polygon fill="#000000" fill-opacity="0.200000" stroke="#000000" stroke-width="2" stroke-opacity="0.200000" points="204.7277,-38.3662 210.4263,-35.5492 204.2148,-34.1977 204.7277,-38.3662"/>
</g>
<!-- src/scenes/play.ts -->
<g id="node4" class="node">
<title>src/scenes/play.ts</title>
<g id="a_node4"><a xlink:href="src/scenes/play.ts" xlink:title="play.ts">
<path fill="#ddfeff" stroke="#000000" d="M162,-132C162,-132 120,-132 120,-132 117,-132 114,-129 114,-126 114,-126 114,-120 114,-120 114,-117 117,-114 120,-114 120,-114 162,-114 162,-114 165,-114 168,-117 168,-120 168,-120 168,-126 168,-126 168,-129 165,-132 162,-132"/>
<text text-anchor="start" x="127.5" y="-120.8" font-family="Helvetica,sans-Serif" font-size="9.00" fill="#000000">play.ts</text>
</a>
</g>
</g>
<!-- src/main.ts&#45;&gt;src/scenes/play.ts -->
<g id="edge2" class="edge">
<title>src/main.ts&#45;&gt;src/scenes/play.ts</title>
<path fill="none" stroke="#000000" stroke-width="2" stroke-opacity="0.200000" d="M75.7528,-123C85.8207,-123 97.3423,-123 107.874,-123"/>
<polygon fill="#000000" fill-opacity="0.200000" stroke="#000000" stroke-width="2" stroke-opacity="0.200000" points="107.9421,-125.1001 113.942,-123 107.942,-120.9001 107.9421,-125.1001"/>
</g>
<!-- src/scenes/title.ts -->
<g id="node5" class="node">
<title>src/scenes/title.ts</title>
<g id="a_node5"><a xlink:href="src/scenes/title.ts" xlink:title="title.ts">
<path fill="#ddfeff" stroke="#000000" d="M162,-102C162,-102 120,-102 120,-102 117,-102 114,-99 114,-96 114,-96 114,-90 114,-90 114,-87 117,-84 120,-84 120,-84 162,-84 162,-84 165,-84 168,-87 168,-90 168,-90 168,-96 168,-96 168,-99 165,-102 162,-102"/>
<text text-anchor="start" x="129" y="-90.8" font-family="Helvetica,sans-Serif" font-size="9.00" fill="#000000">title.ts</text>
</a>
</g>
</g>
<!-- src/main.ts&#45;&gt;src/scenes/title.ts -->
<g id="edge3" class="edge">
<title>src/main.ts&#45;&gt;src/scenes/title.ts</title>
<path fill="none" stroke="#000000" stroke-width="2" stroke-opacity="0.200000" d="M71.954,-113.9793C77.5144,-111.9337 83.4444,-109.8274 89,-108 95.1502,-105.9771 101.757,-103.9564 108.1289,-102.0834"/>
<polygon fill="#000000" fill-opacity="0.200000" stroke="#000000" stroke-width="2" stroke-opacity="0.200000" points="108.7186,-104.0989 113.8948,-100.4089 107.5472,-100.0656 108.7186,-104.0989"/>
</g>
<!-- src/utils/storageCodecs.ts -->
<g id="node6" class="node">
<title>src/utils/storageCodecs.ts</title>
<g id="a_node6"><a xlink:href="src/utils/storageCodecs.ts" xlink:title="storageCodecs.ts">
<path fill="#ddfeff" stroke="#000000" d="M179,-384C179,-384 103,-384 103,-384 100,-384 97,-381 97,-378 97,-378 97,-372 97,-372 97,-369 100,-366 103,-366 103,-366 179,-366 179,-366 182,-366 185,-369 185,-372 185,-372 185,-378 185,-378 185,-381 182,-384 179,-384"/>
<text text-anchor="start" x="105" y="-372.8" font-family="Helvetica,sans-Serif" font-size="9.00" fill="#000000">storageCodecs.ts</text>
</a>
</g>
</g>
<!-- src/main.ts&#45;&gt;src/utils/storageCodecs.ts -->
<g id="edge4" class="edge">
<title>src/main.ts&#45;&gt;src/utils/storageCodecs.ts</title>
<path fill="none" stroke="#000000" stroke-width="2" stroke-opacity="0.200000" d="M51.0999,-132.0156C57.3364,-154.0173 73.205,-212.2985 81,-262 84.3855,-283.5863 75.164,-343.0885 89,-360 89.8032,-360.9817 90.6663,-361.9017 91.5807,-362.7635"/>
<polygon fill="#000000" fill-opacity="0.200000" stroke="#000000" stroke-width="2" stroke-opacity="0.200000" points="90.512,-364.592 96.5412,-366.6068 93.0844,-361.2719 90.512,-364.592"/>
</g>
<!-- src/utils/typedStorage.ts -->
<g id="node7" class="node">
<title>src/utils/typedStorage.ts</title>
<g id="a_node7"><a xlink:href="src/utils/typedStorage.ts" xlink:title="typedStorage.ts">
<path fill="#ddfeff" stroke="#000000" d="M175,-354C175,-354 107,-354 107,-354 104,-354 101,-351 101,-348 101,-348 101,-342 101,-342 101,-339 104,-336 107,-336 107,-336 175,-336 175,-336 178,-336 181,-339 181,-342 181,-342 181,-348 181,-348 181,-351 178,-354 175,-354"/>
<text text-anchor="start" x="109" y="-342.8" font-family="Helvetica,sans-Serif" font-size="9.00" fill="#000000">typedStorage.ts</text>
</a>
</g>
</g>
<!-- src/main.ts&#45;&gt;src/utils/typedStorage.ts -->
<g id="edge5" class="edge">
<title>src/main.ts&#45;&gt;src/utils/typedStorage.ts</title>
<path fill="none" stroke="#000000" stroke-width="2" stroke-opacity="0.200000" d="M50.9861,-132.0345C56.97,-154.0782 72.3202,-212.4453 81,-262 83.6251,-276.9872 79.157,-318.3974 89,-330 90.9128,-332.2547 93.141,-334.1818 95.5783,-335.8276"/>
<polygon fill="#000000" fill-opacity="0.200000" stroke="#000000" stroke-width="2" stroke-opacity="0.200000" points="94.5879,-337.6802 100.8407,-338.826 96.6671,-334.031 94.5879,-337.6802"/>
</g>
<!-- src/scenes/play.ts&#45;&gt;src/data/keyConfig.ts -->
<g id="edge6" class="edge">
<title>src/scenes/play.ts&#45;&gt;src/data/keyConfig.ts</title>
<path fill="none" stroke="#000000" stroke-width="2" stroke-opacity="0.200000" d="M168.2044,-120.6845C177.1986,-118.6101 186.5452,-114.8277 193,-108 203.9621,-96.4047 193.0283,-86.8228 201,-73 206.9899,-62.6137 216.55,-53.3292 225.1364,-46.3258"/>
<polygon fill="#000000" fill-opacity="0.200000" stroke="#000000" stroke-width="2" stroke-opacity="0.200000" points="226.8865,-47.6228 230.3163,-42.2705 224.2973,-44.3157 226.8865,-47.6228"/>
</g>
<!-- src/scenes/play/map.ts -->
<g id="node8" class="node">
<title>src/scenes/play/map.ts</title>
<g id="a_node8"><a xlink:href="src/scenes/play/map.ts" xlink:title="map.ts">
<path fill="#ddfeff" stroke="#000000" d="M419.5,-110C419.5,-110 377.5,-110 377.5,-110 374.5,-110 371.5,-107 371.5,-104 371.5,-104 371.5,-98 371.5,-98 371.5,-95 374.5,-92 377.5,-92 377.5,-92 419.5,-92 419.5,-92 422.5,-92 425.5,-95 425.5,-98 425.5,-98 425.5,-104 425.5,-104 425.5,-107 422.5,-110 419.5,-110"/>
<text text-anchor="start" x="384.5" y="-98.8" font-family="Helvetica,sans-Serif" font-size="9.00" fill="#000000">map.ts</text>
</a>
</g>
</g>
<!-- src/scenes/play.ts&#45;&gt;src/scenes/play/map.ts -->
<g id="edge7" class="edge">
<title>src/scenes/play.ts&#45;&gt;src/scenes/play/map.ts</title>
<path fill="none" stroke="#000000" stroke-width="2" stroke-opacity="0.200000" d="M168.1411,-119.0476C178.4189,-117.6387 190.2344,-116.1241 201,-115 258.6027,-108.9852 325.9323,-104.8234 365.2341,-102.6809"/>
<polygon fill="#000000" fill-opacity="0.200000" stroke="#000000" stroke-width="2" stroke-opacity="0.200000" points="365.417,-104.7742 371.2953,-102.3544 365.191,-100.5803 365.417,-104.7742"/>
</g>
<!-- src/scenes/play/maps/root.ts -->
<g id="node9" class="node">
<title>src/scenes/play/maps/root.ts</title>
<g id="a_node9"><a xlink:href="src/scenes/play/maps/root.ts" xlink:title="root.ts">
<path fill="#ddfeff" stroke="#000000" d="M265,-144C265,-144 223,-144 223,-144 220,-144 217,-141 217,-138 217,-138 217,-132 217,-132 217,-129 220,-126 223,-126 223,-126 265,-126 265,-126 268,-126 271,-129 271,-132 271,-132 271,-138 271,-138 271,-141 268,-144 265,-144"/>
<text text-anchor="start" x="231.5" y="-132.8" font-family="Helvetica,sans-Serif" font-size="9.00" fill="#000000">root.ts</text>
</a>
</g>
</g>
<!-- src/scenes/play.ts&#45;&gt;src/scenes/play/maps/root.ts -->
<g id="edge8" class="edge">
<title>src/scenes/play.ts&#45;&gt;src/scenes/play/maps/root.ts</title>
<path fill="none" stroke="#000000" stroke-width="2" stroke-opacity="0.200000" d="M168.062,-126.1529C181.0873,-127.6704 196.8277,-129.5042 210.5925,-131.1079"/>
<polygon fill="#000000" fill-opacity="0.200000" stroke="#000000" stroke-width="2" stroke-opacity="0.200000" points="210.5584,-133.218 216.7611,-131.8265 211.0444,-129.0462 210.5584,-133.218"/>
</g>
<!-- src/scenes/title.ts&#45;&gt;src/data/keyConfig.ts -->
<g id="edge13" class="edge">
<title>src/scenes/title.ts&#45;&gt;src/data/keyConfig.ts</title>
<path fill="none" stroke="#000000" stroke-width="2" stroke-opacity="0.200000" d="M168.1351,-88.8985C176.4385,-86.9488 185.3837,-84.1094 193,-80 194.0829,-79.4157 214.5894,-60.4028 229.2647,-46.7415"/>
<polygon fill="#000000" fill-opacity="0.200000" stroke="#000000" stroke-width="2" stroke-opacity="0.200000" points="231.0224,-47.9743 233.9815,-42.3481 228.1597,-44.9009 231.0224,-47.9743"/>
</g>
<!-- src/scenes/play/maps/root.ts&#45;&gt;src/scenes/play/map.ts -->
<g id="edge9" class="edge">
<title>src/scenes/play/maps/root.ts&#45;&gt;src/scenes/play/map.ts</title>
<path fill="none" stroke="#000000" stroke-width="2" stroke-opacity="0.200000" d="M271.1805,-128.1694C278.4181,-126.4167 286.2424,-124.5812 293.5,-123 320.9237,-117.0254 328.0487,-116.8465 355.5,-111 358.686,-110.3215 361.9992,-109.5926 365.3097,-108.8489"/>
<polygon fill="#000000" fill-opacity="0.200000" stroke="#000000" stroke-width="2" stroke-opacity="0.200000" points="365.8521,-110.8792 371.2374,-107.5016 364.9212,-106.7837 365.8521,-110.8792"/>
</g>
<!-- src/scenes/play/maps/worlds/world0.ts -->
<g id="node10" class="node">
<title>src/scenes/play/maps/worlds/world0.ts</title>
<g id="a_node10"><a xlink:href="src/scenes/play/maps/worlds/world0.ts" xlink:title="world0.ts">
<path fill="#ddfeff" stroke="#000000" d="M349.5,-152C349.5,-152 307.5,-152 307.5,-152 304.5,-152 301.5,-149 301.5,-146 301.5,-146 301.5,-140 301.5,-140 301.5,-137 304.5,-134 307.5,-134 307.5,-134 349.5,-134 349.5,-134 352.5,-134 355.5,-137 355.5,-140 355.5,-140 355.5,-146 355.5,-146 355.5,-149 352.5,-152 349.5,-152"/>
<text text-anchor="start" x="310" y="-140.8" font-family="Helvetica,sans-Serif" font-size="9.00" fill="#000000">world0.ts</text>
</a>
</g>
</g>
<!-- src/scenes/play/maps/root.ts&#45;&gt;src/scenes/play/maps/worlds/world0.ts -->
<g id="edge10" class="edge">
<title>src/scenes/play/maps/root.ts&#45;&gt;src/scenes/play/maps/worlds/world0.ts</title>
<path fill="none" stroke="#000000" stroke-width="2" stroke-opacity="0.200000" d="M271.2015,-137.5753C278.8907,-138.3033 287.3449,-139.1037 295.3427,-139.8608"/>
<polygon fill="#000000" fill-opacity="0.200000" stroke="#000000" stroke-width="2" stroke-opacity="0.200000" points="295.1783,-141.9546 301.3495,-140.4295 295.5742,-137.7733 295.1783,-141.9546"/>
</g>
<!-- src/scenes/play/maps/worlds/world0.ts&#45;&gt;src/scenes/play/map.ts -->
<g id="edge11" class="edge">
<title>src/scenes/play/maps/worlds/world0.ts&#45;&gt;src/scenes/play/map.ts</title>
<path fill="none" stroke="#000000" stroke-width="2" stroke-opacity="0.200000" d="M348.1407,-133.9566C350.6465,-132.6826 353.1537,-131.3467 355.5,-130 364.1295,-125.0472 373.3208,-118.9669 380.9811,-113.6553"/>
<polygon fill="#000000" fill-opacity="0.200000" stroke="#000000" stroke-width="2" stroke-opacity="0.200000" points="382.3086,-115.2894 386.0141,-110.1242 379.8963,-111.8512 382.3086,-115.2894"/>
</g>
<!-- src/scenes/play/maps/worlds/world0/stage0.ts -->
<g id="node11" class="node">
<title>src/scenes/play/maps/worlds/world0/stage0.ts</title>
<g id="a_node11"><a xlink:href="src/scenes/play/maps/worlds/world0/stage0.ts" xlink:title="stage0.ts">
<path fill="#ddfeff" stroke="#000000" d="M419.5,-160C419.5,-160 377.5,-160 377.5,-160 374.5,-160 371.5,-157 371.5,-154 371.5,-154 371.5,-148 371.5,-148 371.5,-145 374.5,-142 377.5,-142 377.5,-142 419.5,-142 419.5,-142 422.5,-142 425.5,-145 425.5,-148 425.5,-148 425.5,-154 425.5,-154 425.5,-157 422.5,-160 419.5,-160"/>
<text text-anchor="start" x="380" y="-148.8" font-family="Helvetica,sans-Serif" font-size="9.00" fill="#000000">stage0.ts</text>
</a>
</g>
</g>
<!-- src/scenes/play/maps/worlds/world0.ts&#45;&gt;src/scenes/play/maps/worlds/world0/stage0.ts -->
<g id="edge12" class="edge">
<title>src/scenes/play/maps/worlds/world0.ts&#45;&gt;src/scenes/play/maps/worlds/world0/stage0.ts</title>
<path fill="none" stroke="#000000" stroke-width="2" stroke-opacity="0.200000" d="M355.7643,-146.1159C358.773,-146.4598 361.8619,-146.8128 364.9361,-147.1641"/>
<polygon fill="#000000" fill-opacity="0.200000" stroke="#000000" stroke-width="2" stroke-opacity="0.200000" points="364.9953,-149.2845 371.195,-147.8794 365.4723,-145.1116 364.9953,-149.2845"/>
</g>
<!-- src/utils/subst.ts -->
<g id="node12" class="node">
<title>src/utils/subst.ts</title>
<g id="a_node12"><a xlink:href="src/utils/subst.ts" xlink:title="no&#45;orphans">
<path fill="#ccffcc" stroke="#ffa500" d="M162,-324C162,-324 120,-324 120,-324 117,-324 114,-321 114,-318 114,-318 114,-312 114,-312 114,-309 117,-306 120,-306 120,-306 162,-306 162,-306 165,-306 168,-309 168,-312 168,-312 168,-318 168,-318 168,-321 165,-324 162,-324"/>
<text text-anchor="start" x="125.5" y="-312.8" font-family="Helvetica,sans-Serif" font-size="9.00" fill="#ffa500">subst.ts</text>
</a>
</g>
</g>
<!-- src/vite&#45;env.d.ts -->
<g id="node13" class="node">
<title>src/vite&#45;env.d.ts</title>
<g id="a_node13"><a xlink:href="src/vite-env.d.ts" xlink:title="vite&#45;env.d.ts">
<path fill="#ccffcc" stroke="#000000" d="M75,-68C75,-68 22,-68 22,-68 19,-68 16,-65 16,-62 16,-62 16,-56 16,-56 16,-53 19,-50 22,-50 22,-50 75,-50 75,-50 78,-50 81,-53 81,-56 81,-56 81,-62 81,-62 81,-65 78,-68 75,-68"/>
<text text-anchor="start" x="24" y="-56.8" font-family="Helvetica,sans-Serif" font-size="9.00" fill="#000000">vite&#45;env.d.ts</text>
</a>
</g>
</g>
</g>
</svg>
